<mxfile host="app.diagrams.net" agent="Mozilla/5.0 (X11; Linux x86_64; rv:128.0) Gecko/20100101 Firefox/128.0" version="27.1.6">
  <diagram name="Página-1" id="AWgatInFykf5HyZcE30p">
    <mxGraphModel dx="1426" dy="795" grid="1" gridSize="10" guides="1" tooltips="1" connect="1" arrows="1" fold="1" page="1" pageScale="1" pageWidth="1654" pageHeight="1169" math="0" shadow="0">
      <root>
        <mxCell id="0" />
        <mxCell id="1" parent="0" />
        <mxCell id="u5eTTKXeqbNcAaMB8a-V-1" value="AWS Account" style="points=[[0,0],[0.25,0],[0.5,0],[0.75,0],[1,0],[1,0.25],[1,0.5],[1,0.75],[1,1],[0.75,1],[0.5,1],[0.25,1],[0,1],[0,0.75],[0,0.5],[0,0.25]];outlineConnect=0;gradientColor=none;html=1;whiteSpace=wrap;fontSize=12;fontStyle=0;container=1;pointerEvents=0;collapsible=0;recursiveResize=0;shape=mxgraph.aws4.group;grIcon=mxgraph.aws4.group_account;strokeColor=#CD2264;fillColor=none;verticalAlign=top;align=left;spacingLeft=30;fontColor=#CD2264;dashed=0;" parent="1" vertex="1">
          <mxGeometry x="310" y="190" width="1150" height="880" as="geometry" />
        </mxCell>
        <mxCell id="u5eTTKXeqbNcAaMB8a-V-2" value="Region São Paulo (sa-east-1)" style="points=[[0,0],[0.25,0],[0.5,0],[0.75,0],[1,0],[1,0.25],[1,0.5],[1,0.75],[1,1],[0.75,1],[0.5,1],[0.25,1],[0,1],[0,0.75],[0,0.5],[0,0.25]];outlineConnect=0;gradientColor=none;html=1;whiteSpace=wrap;fontSize=12;fontStyle=0;container=1;pointerEvents=0;collapsible=0;recursiveResize=0;shape=mxgraph.aws4.group;grIcon=mxgraph.aws4.group_region;strokeColor=#00A4A6;fillColor=none;verticalAlign=top;align=left;spacingLeft=30;fontColor=#147EBA;dashed=1;" parent="1" vertex="1">
          <mxGeometry x="350" y="240" width="1070" height="800" as="geometry" />
        </mxCell>
        <mxCell id="D5tfxZXsK9BS0bjdaj5E-2" value="" style="rounded=0;whiteSpace=wrap;html=1;dashed=1;dashPattern=1 4;strokeColor=#4B4B4B;fillColor=#D9E7FB;" vertex="1" parent="u5eTTKXeqbNcAaMB8a-V-2">
          <mxGeometry x="25" y="50" width="1020" height="180" as="geometry" />
        </mxCell>
        <mxCell id="D5tfxZXsK9BS0bjdaj5E-3" value="" style="rounded=0;whiteSpace=wrap;html=1;dashed=1;dashPattern=1 4;strokeColor=#006EAF;fillColor=#E6EAF4;fontColor=#ffffff;" vertex="1" parent="u5eTTKXeqbNcAaMB8a-V-2">
          <mxGeometry x="25" y="240" width="1020" height="530" as="geometry" />
        </mxCell>
        <mxCell id="D5tfxZXsK9BS0bjdaj5E-5" value="Zona de disponibilidade" style="sketch=0;outlineConnect=0;gradientColor=none;html=1;whiteSpace=wrap;fontSize=12;fontStyle=0;shape=mxgraph.aws4.group;grIcon=mxgraph.aws4.group_availability_zone;strokeColor=#545B64;fillColor=none;verticalAlign=top;align=left;spacingLeft=30;fontColor=#545B64;dashed=1;" vertex="1" parent="u5eTTKXeqbNcAaMB8a-V-2">
          <mxGeometry x="100" y="300" width="320" height="430" as="geometry" />
        </mxCell>
        <mxCell id="D5tfxZXsK9BS0bjdaj5E-8" value="Private subnet" style="points=[[0,0],[0.25,0],[0.5,0],[0.75,0],[1,0],[1,0.25],[1,0.5],[1,0.75],[1,1],[0.75,1],[0.5,1],[0.25,1],[0,1],[0,0.75],[0,0.5],[0,0.25]];outlineConnect=0;gradientColor=none;html=1;whiteSpace=wrap;fontSize=12;fontStyle=0;container=1;pointerEvents=0;collapsible=0;recursiveResize=0;shape=mxgraph.aws4.group;grIcon=mxgraph.aws4.group_security_group;grStroke=0;strokeColor=#00A4A6;fillColor=#D7E6E7;verticalAlign=top;align=left;spacingLeft=30;fontColor=#147EBA;dashed=0;" vertex="1" parent="u5eTTKXeqbNcAaMB8a-V-2">
          <mxGeometry x="120" y="530" width="280" height="180" as="geometry" />
        </mxCell>
        <mxCell id="D5tfxZXsK9BS0bjdaj5E-7" value="Public subnet" style="points=[[0,0],[0.25,0],[0.5,0],[0.75,0],[1,0],[1,0.25],[1,0.5],[1,0.75],[1,1],[0.75,1],[0.5,1],[0.25,1],[0,1],[0,0.75],[0,0.5],[0,0.25]];outlineConnect=0;gradientColor=none;html=1;whiteSpace=wrap;fontSize=12;fontStyle=0;container=1;pointerEvents=0;collapsible=0;recursiveResize=0;shape=mxgraph.aws4.group;grIcon=mxgraph.aws4.group_security_group;grStroke=0;strokeColor=#7AA116;fillColor=#F2F6E8;verticalAlign=top;align=left;spacingLeft=30;fontColor=#248814;dashed=0;" vertex="1" parent="u5eTTKXeqbNcAaMB8a-V-2">
          <mxGeometry x="120" y="335" width="280" height="155" as="geometry" />
        </mxCell>
        <mxCell id="D5tfxZXsK9BS0bjdaj5E-10" value="Zona de disponibilidade" style="sketch=0;outlineConnect=0;gradientColor=none;html=1;whiteSpace=wrap;fontSize=12;fontStyle=0;shape=mxgraph.aws4.group;grIcon=mxgraph.aws4.group_availability_zone;strokeColor=#545B64;fillColor=none;verticalAlign=top;align=left;spacingLeft=30;fontColor=#545B64;dashed=1;" vertex="1" parent="u5eTTKXeqbNcAaMB8a-V-2">
          <mxGeometry x="580" y="300" width="320" height="430" as="geometry" />
        </mxCell>
        <mxCell id="D5tfxZXsK9BS0bjdaj5E-12" value="Public subnet" style="points=[[0,0],[0.25,0],[0.5,0],[0.75,0],[1,0],[1,0.25],[1,0.5],[1,0.75],[1,1],[0.75,1],[0.5,1],[0.25,1],[0,1],[0,0.75],[0,0.5],[0,0.25]];outlineConnect=0;gradientColor=none;html=1;whiteSpace=wrap;fontSize=12;fontStyle=0;container=1;pointerEvents=0;collapsible=0;recursiveResize=0;shape=mxgraph.aws4.group;grIcon=mxgraph.aws4.group_security_group;grStroke=0;strokeColor=#7AA116;fillColor=#F2F6E8;verticalAlign=top;align=left;spacingLeft=30;fontColor=#248814;dashed=0;" vertex="1" parent="u5eTTKXeqbNcAaMB8a-V-2">
          <mxGeometry x="600" y="335" width="280" height="155" as="geometry" />
        </mxCell>
        <mxCell id="D5tfxZXsK9BS0bjdaj5E-11" value="Private subnet" style="points=[[0,0],[0.25,0],[0.5,0],[0.75,0],[1,0],[1,0.25],[1,0.5],[1,0.75],[1,1],[0.75,1],[0.5,1],[0.25,1],[0,1],[0,0.75],[0,0.5],[0,0.25]];outlineConnect=0;gradientColor=none;html=1;whiteSpace=wrap;fontSize=12;fontStyle=0;container=1;pointerEvents=0;collapsible=0;recursiveResize=0;shape=mxgraph.aws4.group;grIcon=mxgraph.aws4.group_security_group;grStroke=0;strokeColor=#00A4A6;fillColor=#D7E6E7;verticalAlign=top;align=left;spacingLeft=30;fontColor=#147EBA;dashed=0;" vertex="1" parent="u5eTTKXeqbNcAaMB8a-V-2">
          <mxGeometry x="600" y="530" width="280" height="180" as="geometry" />
        </mxCell>
        <mxCell id="D5tfxZXsK9BS0bjdaj5E-16" value="&lt;font style=&quot;font-size: 11px;&quot;&gt;network interface&lt;/font&gt;" style="sketch=0;outlineConnect=0;fontColor=#232F3E;gradientColor=none;fillColor=#8C4FFF;strokeColor=none;dashed=0;verticalLabelPosition=bottom;verticalAlign=top;align=center;html=1;fontSize=12;fontStyle=0;aspect=fixed;pointerEvents=1;shape=mxgraph.aws4.elastic_network_interface;" vertex="1" parent="u5eTTKXeqbNcAaMB8a-V-2">
          <mxGeometry x="220" y="410" width="48" height="48" as="geometry" />
        </mxCell>
        <mxCell id="D5tfxZXsK9BS0bjdaj5E-4" value="&lt;b&gt;VPC&lt;/b&gt;" style="points=[[0,0],[0.25,0],[0.5,0],[0.75,0],[1,0],[1,0.25],[1,0.5],[1,0.75],[1,1],[0.75,1],[0.5,1],[0.25,1],[0,1],[0,0.75],[0,0.5],[0,0.25]];outlineConnect=0;gradientColor=none;html=1;whiteSpace=wrap;fontSize=12;fontStyle=0;container=1;pointerEvents=0;collapsible=0;recursiveResize=0;shape=mxgraph.aws4.group;grIcon=mxgraph.aws4.group_vpc2;strokeColor=#8C4FFF;fillColor=none;verticalAlign=top;align=left;spacingLeft=30;fontColor=#AAB7B8;dashed=0;" vertex="1" parent="1">
          <mxGeometry x="390" y="500" width="990" height="490" as="geometry" />
        </mxCell>
        <mxCell id="D5tfxZXsK9BS0bjdaj5E-15" style="edgeStyle=orthogonalEdgeStyle;rounded=0;orthogonalLoop=1;jettySize=auto;html=1;" edge="1" parent="D5tfxZXsK9BS0bjdaj5E-4" source="D5tfxZXsK9BS0bjdaj5E-13" target="D5tfxZXsK9BS0bjdaj5E-14">
          <mxGeometry relative="1" as="geometry" />
        </mxCell>
        <mxCell id="D5tfxZXsK9BS0bjdaj5E-13" value="&lt;font style=&quot;font-size: 11px;&quot;&gt;Internet Gateway&lt;/font&gt;" style="sketch=0;outlineConnect=0;fontColor=#232F3E;gradientColor=none;fillColor=#8C4FFF;strokeColor=none;dashed=0;verticalLabelPosition=bottom;verticalAlign=top;align=center;html=1;fontSize=12;fontStyle=0;aspect=fixed;pointerEvents=1;shape=mxgraph.aws4.internet_gateway;" vertex="1" parent="D5tfxZXsK9BS0bjdaj5E-4">
          <mxGeometry x="440" y="-20" width="48" height="48" as="geometry" />
        </mxCell>
        <mxCell id="D5tfxZXsK9BS0bjdaj5E-18" style="edgeStyle=orthogonalEdgeStyle;rounded=0;orthogonalLoop=1;jettySize=auto;html=1;" edge="1" parent="D5tfxZXsK9BS0bjdaj5E-4" source="D5tfxZXsK9BS0bjdaj5E-14" target="D5tfxZXsK9BS0bjdaj5E-17">
          <mxGeometry relative="1" as="geometry" />
        </mxCell>
        <mxCell id="D5tfxZXsK9BS0bjdaj5E-14" value="&lt;font style=&quot;font-size: 11px;&quot;&gt;Load Balancer&lt;/font&gt;" style="sketch=0;outlineConnect=0;fontColor=#232F3E;gradientColor=none;fillColor=#8C4FFF;strokeColor=none;dashed=0;verticalLabelPosition=bottom;verticalAlign=top;align=center;html=1;fontSize=12;fontStyle=0;aspect=fixed;pointerEvents=1;shape=mxgraph.aws4.application_load_balancer;" vertex="1" parent="D5tfxZXsK9BS0bjdaj5E-4">
          <mxGeometry x="440" y="116" width="48" height="48" as="geometry" />
        </mxCell>
        <mxCell id="D5tfxZXsK9BS0bjdaj5E-17" value="&lt;font style=&quot;font-size: 11px;&quot;&gt;network interface&lt;/font&gt;" style="sketch=0;outlineConnect=0;fontColor=#232F3E;gradientColor=none;fillColor=#8C4FFF;strokeColor=none;dashed=0;verticalLabelPosition=bottom;verticalAlign=top;align=center;html=1;fontSize=12;fontStyle=0;aspect=fixed;pointerEvents=1;shape=mxgraph.aws4.elastic_network_interface;" vertex="1" parent="D5tfxZXsK9BS0bjdaj5E-4">
          <mxGeometry x="680" y="150" width="48" height="48" as="geometry" />
        </mxCell>
        <mxCell id="D5tfxZXsK9BS0bjdaj5E-19" style="edgeStyle=orthogonalEdgeStyle;rounded=0;orthogonalLoop=1;jettySize=auto;html=1;" edge="1" parent="1" source="D5tfxZXsK9BS0bjdaj5E-14" target="D5tfxZXsK9BS0bjdaj5E-16">
          <mxGeometry relative="1" as="geometry" />
        </mxCell>
      </root>
    </mxGraphModel>
  </diagram>
</mxfile>
